<svg version="1.1" id="Layer_1" xmlns="http://www.w3.org/2000/svg" xmlns:xlink="http://www.w3.org/1999/xlink" x="0px" y="0px"
	 width="100%" viewBox="0 0 944 912" enable-background="new 0 0 944 912" xml:space="preserve">
<path fill="#000000" opacity="1.000000" stroke="none" 
	d="
M257.110474,757.817261 
	C255.595367,772.036072 250.897430,784.084778 237.518600,790.352844 
	C222.639053,797.323914 208.174667,794.661987 195.703430,784.979248 
	C174.741501,768.704224 169.614975,746.157349 173.272614,721.006042 
	C174.103394,715.293091 175.327560,709.570801 177.404053,704.060669 
	C181.463760,693.288147 187.638123,684.231812 195.808777,675.949829 
	C212.308060,659.225647 230.287872,644.062683 246.424805,626.970337 
	C254.112762,618.827209 259.395691,610.379028 259.050964,598.375916 
	C258.731384,587.247925 263.556183,577.014160 268.924713,567.304932 
	C270.441986,564.560913 271.995880,561.837219 273.763855,558.693665 
	C269.000519,555.677917 263.856201,554.020142 259.718079,550.651917 
	C242.955566,537.008057 237.816666,511.477905 255.898911,493.638367 
	C266.085846,483.588165 278.533325,477.767517 292.245667,473.692719 
	C315.496216,466.783508 339.438995,465.934662 363.286377,463.940399 
	C364.086884,463.873474 364.960052,464.077209 365.887207,462.853271 
	C363.888916,460.275299 361.655914,457.666809 359.720306,454.853668 
	C345.889679,434.752228 337.067474,412.860870 334.759644,388.319458 
	C333.452362,374.417603 333.902130,360.787933 336.588196,347.134521 
	C337.401672,342.999451 338.605225,339.041748 340.663544,335.435272 
	C343.645142,330.211121 345.648682,326.270935 340.034760,320.385773 
	C334.251526,314.323120 330.079895,306.470947 327.754639,297.817322 
	C321.764648,275.525238 324.783081,254.156174 336.399200,234.932571 
	C350.948975,210.854080 373.816620,198.455780 401.551361,194.654266 
	C414.103302,192.933792 426.417236,193.537933 438.637238,196.794022 
	C442.069946,197.708710 445.427734,198.936584 447.902527,201.472946 
	C454.006500,207.728729 460.623688,207.723724 468.744873,205.466232 
	C482.643494,201.602753 496.830933,199.121384 511.450104,198.545013 
	C523.927246,198.053101 536.319214,197.013474 548.758850,198.688904 
	C559.476135,200.132339 570.216553,201.421875 580.903992,203.058441 
	C584.160583,203.557129 585.169678,202.703613 585.864014,199.505051 
	C587.519104,191.880539 589.836548,184.430725 592.320190,176.998306 
	C598.484985,158.550095 606.424500,140.589844 610.046021,121.417953 
	C612.470764,108.581512 614.597900,95.465324 611.463135,82.279648 
	C609.905273,75.726524 609.310059,75.394920 603.232300,78.055992 
	C576.390930,89.808151 549.177246,100.537239 521.164185,109.265930 
	C508.606537,113.178818 496.124786,117.295143 483.293945,120.198250 
	C480.178101,120.903221 479.996887,123.200172 479.508636,125.368263 
	C476.962280,136.676346 471.047791,146.249115 462.501190,153.590759 
	C452.001587,162.610092 439.332123,165.255875 425.528839,162.780457 
	C400.226135,158.242813 381.674896,136.024994 380.651886,110.231140 
	C379.853119,90.091057 386.747009,74.552063 403.872467,63.655556 
	C409.163666,60.288891 414.686462,59.566990 420.594452,61.158806 
	C422.104767,61.565735 424.205566,61.824886 424.030579,64.074524 
	C423.883362,65.967094 422.111237,66.038536 420.622131,66.332672 
	C395.380035,71.318665 383.986115,93.788345 390.997375,117.566086 
	C394.846161,130.618805 400.420258,142.899948 412.260315,151.032013 
	C425.089203,159.843201 442.226044,158.198654 453.627258,147.520401 
	C459.387299,142.125687 463.719666,136.057846 465.907776,128.485138 
	C466.404938,126.764557 467.273071,125.042694 466.039520,122.975380 
	C463.523071,122.728394 460.948730,122.781738 458.474274,123.697075 
	C458.014740,129.893448 456.813049,135.413071 449.817413,137.179596 
	C448.532410,137.504089 447.523987,138.567444 447.742035,139.676895 
	C449.117371,146.675598 443.228149,148.077423 439.168793,150.103714 
	C431.548096,153.907730 423.319702,152.794418 415.947083,149.515961 
	C408.031372,145.996033 402.196594,139.675766 398.687286,131.567444 
	C397.847443,129.627045 396.777710,126.894012 399.148804,125.705284 
	C401.936096,124.307899 402.699188,127.365852 403.508301,129.177917 
	C404.997986,132.514267 407.631104,134.817642 410.228424,137.117737 
	C412.385193,139.027634 414.803955,140.587982 417.751343,138.099838 
	C418.422333,137.533356 419.615723,137.521027 420.586975,137.397644 
	C421.231445,137.315765 422.450470,137.659882 422.492676,137.525192 
	C424.118774,132.334961 430.092407,131.225937 432.433533,127.111687 
	C433.900970,124.532806 431.308044,122.107819 428.419952,121.387932 
	C425.580322,120.680099 424.369293,119.011086 425.034363,116.316208 
	C425.765472,113.353760 428.209106,113.284103 430.660522,113.702278 
	C441.239319,115.506866 451.870422,115.055191 462.507629,114.509872 
	C466.598358,114.300163 468.303223,112.491936 467.963348,108.138260 
	C466.763336,92.766228 462.084778,79.238617 449.267456,69.478798 
	C445.353821,66.498734 441.197083,64.964226 436.311493,65.214577 
	C434.822815,65.290848 433.308838,65.219666 431.829559,65.033020 
	C430.432526,64.856766 429.268890,64.124939 428.961792,62.631790 
	C428.630280,61.019848 429.726166,60.224266 430.974152,59.580551 
	C434.359924,57.834148 437.834412,57.337955 441.606537,58.294064 
	C454.418091,61.541412 463.724884,69.296616 470.819550,80.214134 
	C476.692932,89.252327 481.569427,98.583473 481.291840,110.240677 
	C490.130768,109.024231 497.888458,106.514679 505.531250,104.037247 
	C524.702576,97.822845 542.966003,89.233475 561.639221,81.709435 
	C575.070984,76.297363 588.351013,70.573143 601.530579,64.595261 
	C609.048889,61.185173 615.130310,63.438320 618.716919,71.080330 
	C621.175537,76.318893 621.614380,82.059563 622.002075,87.648651 
	C623.089844,103.331314 621.666443,118.908028 619.054382,134.392838 
	C617.312317,144.720154 616.521240,155.252090 613.606018,165.325684 
	C609.353516,180.020248 604.871765,194.703537 594.746460,206.547562 
	C595.305359,208.412659 596.745056,208.705063 597.968201,208.979233 
	C614.530701,212.691879 628.841309,221.151672 642.900513,230.160416 
	C647.380493,233.031036 652.434998,234.836975 656.846436,237.907532 
	C659.119202,239.489517 662.155273,239.988815 665.015442,239.557190 
	C679.617432,237.353607 692.315674,242.399506 702.550049,251.881943 
	C717.394775,265.636139 725.810974,283.569519 728.645752,303.439362 
	C730.493835,316.393585 726.415894,328.900696 719.720032,340.156708 
	C718.009033,343.032959 717.492981,345.305450 718.228027,348.446320 
	C722.185303,365.355713 724.853943,382.506866 723.993042,399.881775 
	C723.322021,413.423248 723.863403,427.223816 718.135742,440.144379 
	C709.813660,458.917450 699.184326,475.770569 683.168274,489.234467 
	C660.032776,508.683258 632.997986,518.797974 603.972473,524.860596 
	C589.573364,527.868103 574.923584,528.155762 560.343262,529.184021 
	C556.906006,529.426453 554.632629,529.972412 556.112122,534.128784 
	C556.273560,534.582275 556.297607,535.135742 556.219666,535.615906 
	C554.232544,547.859070 561.352234,555.114136 570.149597,561.682922 
	C581.434570,570.109131 593.715759,574.878113 608.053711,574.866089 
	C618.159119,574.857605 628.314270,575.656433 638.118774,578.884460 
	C656.524414,584.944214 662.099243,606.296997 648.463928,620.132629 
	C636.154724,632.622559 620.324524,638.370728 603.500427,641.160156 
	C581.124023,644.870239 560.126404,640.204834 540.695618,628.639221 
	C535.977173,625.830688 531.691345,622.341492 527.967590,618.234253 
	C526.875366,617.029541 526.069580,615.468628 523.807617,614.917236 
	C515.134338,624.051575 505.252747,632.176392 494.996552,639.836792 
	C489.533020,643.917542 483.954773,647.878174 478.179352,651.495483 
	C474.510468,653.793335 472.716217,655.926819 474.021637,660.726318 
	C476.723999,670.661743 478.536926,680.816345 475.698212,691.409180 
	C481.069824,691.507751 485.235962,689.100830 489.790192,688.368286 
	C503.225159,686.207336 514.211121,690.238281 522.572388,700.785706 
	C530.190491,710.395508 530.752625,721.451172 526.761963,732.513062 
	C522.226135,745.086304 515.957642,756.908081 507.712463,767.496460 
	C498.921417,778.785889 487.586517,785.933228 472.905823,786.140564 
	C465.071228,786.251221 458.063629,783.330627 451.691803,778.575928 
	C441.377136,770.879211 432.818359,761.251221 422.914246,753.097229 
	C408.878937,741.542114 394.105408,731.093262 378.960693,721.046997 
	C362.706268,710.264526 345.318573,701.363525 329.271637,690.289429 
	C326.784027,688.572693 325.040466,688.647583 322.783112,690.778442 
	C303.547760,708.935547 281.784760,723.145630 256.862915,732.263672 
	C253.625046,733.448303 252.948364,734.997803 254.051208,738.225037 
	C256.159454,744.394287 257.222870,750.801819 257.110474,757.817261 
M600.222473,219.280258 
	C554.894470,202.783798 508.808472,200.745300 461.192993,211.581284 
	C463.178650,214.764603 464.885803,217.181122 466.264587,219.772354 
	C470.261108,227.283386 472.933929,235.061646 470.206757,243.698593 
	C469.605988,245.601196 469.061340,247.591064 466.479858,247.503067 
	C464.733948,246.113754 465.509094,244.401794 465.646515,242.806839 
	C465.933746,239.473419 466.383392,236.003281 464.994934,232.924728 
	C459.740814,221.275040 451.204742,212.510010 439.517151,207.563080 
	C429.272461,203.226883 418.425934,202.593079 407.179749,203.910248 
	C378.068390,207.319794 356.573120,222.128815 342.779999,247.323105 
	C329.585876,271.423248 334.044495,295.220093 347.680847,317.889404 
	C351.258545,323.837036 356.675812,328.384949 360.721008,333.595490 
	C359.942444,335.984833 357.639740,333.987427 356.742950,335.921753 
	C365.686615,345.377380 376.657562,351.733917 388.616028,356.574982 
	C391.021851,357.548920 393.794739,358.055176 393.651184,361.653564 
	C389.541779,363.145996 385.267365,361.530975 381.268494,362.755524 
	C383.253479,369.007874 383.268250,369.092621 376.963806,370.191772 
	C375.148102,370.508362 374.491028,371.555573 373.881927,372.994751 
	C372.937347,375.226654 370.809479,377.173737 368.869293,375.884277 
	C364.548340,373.012390 359.139160,374.976654 354.641693,370.687714 
	C349.575928,365.856812 346.775635,360.746857 345.851349,354.381592 
	C345.238037,350.158234 345.057312,345.882721 344.039734,340.973389 
	C341.510559,346.182190 342.309875,350.905304 342.256989,355.521240 
	C342.112061,368.177460 341.672607,380.931702 344.516998,393.324341 
	C347.998169,408.491364 353.584778,422.851685 362.887512,435.636475 
	C375.330231,452.736633 389.171753,468.428070 407.489258,479.363678 
	C422.917053,488.574219 438.602844,497.539459 455.949951,502.729279 
	C479.248535,509.699707 503.038269,514.289856 527.221802,517.207703 
	C554.721375,520.525696 582.017334,521.080811 608.968506,513.866028 
	C629.594421,508.344604 649.958069,502.087372 666.855713,488.012726 
	C684.231262,473.539917 698.620300,456.748901 708.023315,436.025665 
	C713.641602,423.643677 715.346741,410.779419 714.098755,397.087952 
	C712.122986,375.412842 711.062378,353.755035 706.008850,332.375031 
	C696.707642,293.023743 673.998596,263.371094 641.849670,240.273575 
	C629.363770,231.303024 615.168579,225.308182 600.222473,219.280258 
M458.284882,636.186768 
	C461.770203,639.931030 465.255493,643.675232 468.784088,647.465942 
	C514.209351,621.188843 539.513184,581.208008 550.222839,530.152649 
	C537.421204,530.919067 525.026428,529.034363 512.143127,528.162964 
	C516.347046,535.361938 518.411072,535.892273 524.704834,531.966614 
	C527.326416,530.331421 529.540955,531.518677 531.549866,533.127197 
	C532.959473,534.255859 533.902222,535.986328 535.797791,536.487732 
	C540.674805,537.777893 541.068665,542.145020 540.723389,545.631104 
	C540.343933,549.461487 536.398865,548.505676 533.232727,548.013977 
	C533.885315,551.642090 530.621277,553.414001 530.272522,556.017883 
	C529.506714,561.736328 526.784485,563.405334 520.783447,560.932434 
	C524.479370,572.515198 510.804443,569.665039 508.991486,576.728699 
	C508.819702,577.398010 506.833862,576.763916 505.786621,576.200012 
	C503.694855,575.073547 502.037262,573.501099 500.647522,571.557739 
	C499.773804,570.335876 499.111450,568.426270 496.786316,569.303894 
	C496.032440,570.967896 497.159485,572.196106 497.815979,573.434998 
	C499.117096,575.890259 499.642670,578.527771 497.096405,580.113281 
	C494.639465,581.643127 492.715729,579.471924 491.214661,577.713257 
	C476.751587,560.768616 466.626221,541.422363 459.972443,520.253357 
	C459.050842,517.321289 457.728943,515.569702 454.913727,514.813660 
	C446.845184,512.646790 439.171906,509.385132 431.592804,505.978149 
	C418.088165,499.907440 404.501862,494.005249 392.900879,484.393127 
	C379.930542,473.646362 364.778290,469.274597 348.116333,471.458252 
	C331.963074,473.575287 315.752075,475.545258 300.052307,480.285583 
	C285.325226,484.732239 271.759918,490.685242 262.045227,503.583252 
	C255.374222,512.440308 254.369186,533.517761 267.106995,541.119690 
	C275.358948,546.044495 284.147369,548.068359 293.461182,546.407410 
	C309.215240,543.597839 324.439880,538.654907 339.582764,533.588867 
	C354.282928,528.670959 369.239807,527.604858 384.404785,530.050659 
	C389.272736,530.835693 394.010254,532.851196 398.049225,535.975586 
	C399.332001,536.967896 401.110687,538.052734 399.836914,539.999146 
	C398.831268,541.535828 397.196228,540.977051 395.764832,540.326477 
	C394.855072,539.913086 393.943024,539.504089 393.024017,539.111877 
	C378.795593,533.038696 364.512329,532.417419 349.733002,537.540833 
	C329.619202,544.513428 310.300385,553.841125 289.288757,558.166748 
	C287.111481,558.614990 285.860504,559.999390 284.747253,561.741394 
	C274.226837,578.204346 270.183014,596.285583 274.093658,615.270630 
	C278.121246,634.823364 291.201263,649.133240 306.475250,660.747986 
	C323.950623,674.036621 342.326019,686.187256 360.703735,698.232239 
	C383.692200,713.299255 406.864960,728.062500 426.798798,747.205444 
	C435.086151,755.164001 443.125488,763.380676 451.284637,771.472839 
	C455.347626,775.502625 460.099976,778.352173 466.190155,780.461853 
	C464.759216,770.159119 467.881805,761.492859 472.121185,753.108337 
	C473.626038,750.132141 475.319275,748.072937 479.471893,748.994812 
	C484.021393,750.004883 488.807068,749.951233 493.789764,750.387390 
	C492.634766,748.347900 490.696960,748.520325 489.366974,747.644348 
	C487.092743,746.146362 482.260101,746.571228 483.433136,742.383850 
	C484.614136,738.168091 488.864075,739.599976 492.056244,739.950012 
	C494.026825,740.166138 495.931854,740.926819 497.894745,741.288757 
	C498.860779,741.466858 500.139740,742.265442 500.846771,740.471680 
	C499.776947,739.910767 498.722565,739.428223 497.741486,738.826294 
	C496.430634,738.022034 495.153931,737.006531 495.435272,735.291931 
	C495.725220,733.525146 497.315826,732.911621 498.828461,732.885193 
	C502.406067,732.822571 505.977142,731.660950 509.655426,732.494568 
	C509.603394,735.111694 506.999939,736.113098 506.708282,738.121704 
	C507.195374,741.066467 510.823273,741.730042 511.096130,744.936401 
	C508.471405,746.931091 504.644867,746.007446 502.057983,748.235474 
	C502.687744,751.026794 504.513550,753.838501 501.385162,756.087097 
	C498.891815,757.879211 495.564392,756.451416 492.843384,757.732971 
	C495.440979,763.687866 495.375305,763.819641 489.201782,765.872925 
	C491.861511,770.931458 490.960449,771.964111 482.886047,773.083313 
	C482.337860,774.514587 485.054382,776.300232 482.625122,777.425537 
	C480.559692,778.382263 479.521698,776.784302 478.938446,775.148560 
	C478.311676,773.390808 475.752625,773.126526 475.791962,770.781067 
	C477.928253,767.566406 481.849457,769.491882 485.339355,768.191711 
	C481.295227,765.555969 477.648285,764.168518 473.655273,763.052551 
	C472.269135,768.248047 471.134064,773.256226 473.371979,778.321716 
	C474.821808,781.603455 477.151550,782.907959 480.584290,781.087769 
	C487.236786,777.560425 493.859436,773.811890 498.583344,767.849365 
	C507.198761,756.974854 513.987366,744.945312 519.235046,732.103943 
	C522.473694,724.178772 521.643738,716.133606 518.961182,708.214783 
	C517.182556,702.964417 514.197754,698.521851 508.801575,696.568970 
	C498.247314,692.749329 488.080933,693.011292 478.200409,699.281250 
	C472.614105,702.826111 468.091400,707.367371 463.456177,711.901001 
	C462.485046,712.850769 461.845032,714.594116 459.584473,713.834900 
	C459.498840,709.759094 462.176270,706.795776 464.167572,703.757935 
	C470.449341,694.174683 470.907379,683.735718 469.102570,672.989990 
	C464.992279,648.517395 438.817474,626.383728 416.166382,623.177734 
	C412.690308,622.685730 409.048492,622.251953 405.858429,619.778442 
	C408.468567,616.958069 411.572083,617.403748 414.429413,617.565979 
	C430.990326,618.506287 445.405823,624.683105 458.284882,636.186768 
M243.239960,777.720764 
	C247.813812,771.842468 249.782135,765.171936 249.844620,757.735779 
	C249.911163,749.813965 248.557587,742.153931 246.319839,734.631348 
	C245.292679,731.178406 246.441040,729.282288 249.659912,728.084473 
	C274.269501,718.926880 296.336029,705.590515 315.877350,688.011963 
	C318.887787,685.303894 319.480103,683.617065 315.714417,681.329041 
	C304.301849,674.394775 294.370087,665.469116 283.812134,657.384583 
	C278.036865,652.962219 273.721161,647.211792 270.048218,641.108154 
	C268.322906,638.241089 266.455566,636.113464 263.415985,634.527283 
	C261.786530,635.773438 260.113617,636.871765 258.650330,638.200928 
	C248.415756,647.497620 237.323868,655.768005 226.825485,664.722778 
	C216.855301,673.226929 206.473206,681.428772 198.039078,691.591187 
	C187.060318,704.819702 182.402740,720.081848 182.835403,737.323730 
	C183.129684,749.051147 185.555481,759.926208 192.688339,769.157104 
	C206.729111,787.327820 224.611542,793.443237 243.239960,777.720764 
M559.136108,589.372681 
	C560.757141,584.182617 562.378174,578.992554 564.255554,572.981689 
	C568.205750,580.681946 563.965698,587.901123 565.442871,594.814148 
	C565.512390,595.139404 564.990784,595.745422 564.600098,595.989929 
	C561.578674,597.880432 562.434509,600.351562 563.285583,603.022217 
	C564.352844,606.370850 565.500793,610.196777 562.546692,612.869690 
	C560.350952,614.856384 559.425293,616.769836 559.100281,619.587280 
	C558.593628,623.980286 555.894043,625.013855 552.695068,621.958191 
	C549.754822,619.149658 545.269348,615.990540 542.806946,616.180542 
	C536.423218,616.673340 536.778687,612.213562 535.219177,608.991333 
	C534.465454,607.434143 534.778687,605.234619 532.345520,604.919312 
	C527.276794,609.140320 527.106140,610.054688 531.955261,613.946533 
	C551.833435,629.900635 574.468018,636.125732 599.679504,632.354248 
	C615.258484,630.023682 628.960754,623.842041 639.734985,611.859741 
	C649.041626,601.509521 646.332397,589.018433 633.449707,584.168701 
	C625.393860,581.136047 616.878601,580.773315 608.427979,580.214111 
	C598.053711,579.527649 588.122620,577.493896 578.522461,573.175476 
	C570.059570,569.368530 562.947327,563.897217 555.696777,557.153748 
	C552.804565,565.850220 550.197266,574.018677 545.889954,581.480713 
	C542.488892,587.372803 539.363037,593.423340 536.083130,599.385986 
	C535.072754,601.222839 534.925232,603.002197 536.807251,604.215820 
	C538.765198,605.478516 539.862366,603.973267 540.739075,602.461243 
	C542.639893,599.182983 545.784424,597.639282 549.194946,596.724976 
	C553.258789,595.635681 556.469055,593.533081 559.136108,589.372681 
M694.235962,282.331177 
	C702.119568,295.417236 707.461304,309.645996 712.907715,323.957916 
	C718.381592,305.074310 715.954590,287.020325 706.494812,270.285797 
	C697.295044,254.011078 682.933411,244.515350 663.753052,242.497162 
	C673.966553,255.488159 685.981140,267.033234 694.235962,282.331177 
M477.036591,524.580750 
	C479.515564,525.122314 479.209320,523.150085 479.994110,521.807739 
	C475.314484,520.177734 471.066467,518.558777 466.179901,518.393799 
	C466.817352,521.596558 468.168610,523.179382 471.338470,522.367310 
	C473.463318,521.822937 475.241272,522.411438 477.036591,524.580750 
M479.856110,756.366821 
	C476.733490,755.499329 476.733490,755.499329 475.759552,758.410706 
	C477.807587,758.539001 479.771362,759.084961 482.244171,758.188599 
	C481.349487,757.454163 480.867310,757.058411 479.856110,756.366821 
z"/>
<path fill="#000000" opacity="1.000000" stroke="none" 
	d="
M284.701874,795.975708 
	C285.098969,792.434143 286.931976,792.038086 289.718292,792.573303 
	C304.734009,795.457703 319.770142,798.306946 334.999207,799.778259 
	C342.312042,800.484741 346.603607,806.654541 353.046021,808.863586 
	C354.768982,809.454346 353.181488,812.020142 354.205841,813.485596 
	C359.567749,815.309509 365.114655,814.507874 370.553772,814.763611 
	C374.814667,814.963867 378.189148,816.222351 380.773285,819.892334 
	C383.449738,823.693420 387.064789,826.175537 392.104370,826.118591 
	C395.572571,826.079468 399.509338,825.943726 401.352356,829.656921 
	C403.341461,833.664368 401.321106,836.980164 398.464417,839.881042 
	C397.928131,840.425720 397.645447,841.220093 396.781189,842.688782 
	C400.657532,842.688782 403.939331,842.779541 407.214691,842.672913 
	C420.870300,842.228333 434.476166,843.188171 448.090149,843.991333 
	C452.079010,844.226624 455.574127,845.389038 458.306061,848.465820 
	C462.701294,853.416077 461.389648,858.313232 455.103729,860.362061 
	C451.027374,861.690796 446.871582,861.264221 442.720734,861.007996 
	C437.408020,860.680054 432.095703,860.344482 426.784393,859.994812 
	C424.455414,859.841431 422.526611,860.255737 421.547791,862.772644 
	C419.929840,866.932800 416.526672,868.192383 412.370850,868.272827 
	C403.539124,868.443665 394.804657,869.507568 386.125458,871.155029 
	C381.465149,872.039673 378.442871,875.945374 373.715637,877.068237 
	C365.503784,879.018799 362.599854,878.150269 359.841217,870.405090 
	C358.963989,867.942200 357.127869,868.299438 355.385071,868.283020 
	C348.224274,868.215576 341.061371,868.313965 333.901855,868.193970 
	C326.737396,868.073914 324.354004,865.966614 323.869904,858.751282 
	C323.637451,855.286743 321.649963,855.285828 319.196625,855.116333 
	C307.426117,854.302979 295.586243,854.667725 283.863953,852.946289 
	C281.659546,852.622559 279.648438,852.265198 277.920837,850.758179 
	C274.908264,848.130005 274.828827,844.896606 278.427368,843.269775 
	C282.520416,841.419373 284.783112,837.560181 289.234589,835.553467 
	C285.927673,833.550720 282.862427,833.837708 279.973389,833.587402 
	C273.891205,833.060547 270.236786,830.478149 268.891174,824.743103 
	C268.324005,822.325989 267.299866,821.477295 264.957245,821.209839 
	C261.665894,820.834229 258.403442,820.169189 255.471420,818.390015 
	C251.498260,815.979065 250.993210,812.256287 252.013016,808.354675 
	C252.931381,804.841248 255.849762,803.857422 259.360962,803.613586 
	C269.510437,802.908691 279.091003,806.469666 289.027863,807.268555 
	C290.819611,807.412598 292.583069,808.145935 294.953461,807.252563 
	C290.635895,804.196716 285.539276,802.156738 284.701874,795.975708 
z"/>
<path fill="#000000" opacity="1.000000" stroke="none" 
	d="
M553.803101,369.625275 
	C542.645630,393.640625 516.427795,395.473785 497.667175,385.755707 
	C490.364471,381.972870 486.227905,374.954346 483.457855,367.141174 
	C479.629059,356.341736 479.226990,345.431152 480.764740,334.179596 
	C481.928192,325.666809 488.720032,321.078979 493.138306,314.865417 
	C496.521515,310.107483 498.719818,304.440704 504.710266,301.600708 
	C522.353760,293.236145 542.099121,297.357452 551.011353,316.152985 
	C559.093262,333.197266 561.531189,351.102234 553.803101,369.625275 
z"/>
<path fill="#000000" opacity="1.000000" stroke="none" 
	d="
M691.864380,333.304260 
	C699.184326,352.658630 701.227539,371.745697 691.840393,390.612030 
	C687.286987,399.763550 679.572266,402.199829 671.168518,398.024323 
	C668.676880,396.786377 666.775452,394.989319 665.701050,392.455292 
	C663.233643,386.635437 661.095886,380.663025 660.813538,374.300781 
	C660.288818,362.478729 660.733521,350.684937 663.938477,339.204010 
	C665.617249,333.190216 668.200012,327.511139 674.926392,325.621338 
	C683.120422,323.319092 687.590332,325.420380 691.864380,333.304260 
z"/>
<path fill="#000000" opacity="1.000000" stroke="none" 
	d="
M346.698792,264.535126 
	C348.443298,273.630615 355.892731,280.066559 356.471558,289.302795 
	C356.645264,292.074799 359.122864,293.441040 361.938080,293.343201 
	C368.252960,293.123901 368.251312,293.076660 371.734833,298.097931 
	C378.189514,296.094482 379.985748,296.511780 381.206085,303.699036 
	C382.509735,311.377106 389.025116,315.721771 391.297272,322.560791 
	C391.605011,323.487000 392.455902,324.222931 393.630951,324.102600 
	C397.974609,323.657745 399.215088,326.956787 400.668427,329.953979 
	C402.226746,333.167572 403.294312,336.213379 397.808136,336.302032 
	C397.338379,336.309631 396.641144,336.446228 396.440338,336.767303 
	C393.310059,341.772308 390.224060,339.294800 387.409454,336.629791 
	C384.749695,337.541748 385.567719,339.776764 385.020905,341.380280 
	C384.425201,343.127319 383.313019,344.193146 381.412750,344.309540 
	C379.712372,344.413727 377.463501,344.526459 377.065277,342.733673 
	C375.552399,335.923218 369.158844,334.913086 364.507172,332.428558 
	C356.843903,328.335388 352.405243,321.518860 348.474335,314.684387 
	C341.182068,302.005554 337.018982,288.163361 338.014984,273.226227 
	C338.191071,270.585388 338.401581,267.888702 339.106812,265.360229 
	C339.644653,263.431854 339.774750,260.720001 342.509521,260.341248 
	C345.231415,259.964294 344.963074,263.102936 346.698792,264.535126 
z"/>
<path fill="#000000" opacity="1.000000" stroke="none" 
	d="
M262.994141,667.705994 
	C263.136688,663.837708 262.530548,660.353577 263.796722,656.384094 
	C267.965454,659.145996 272.137909,660.075378 276.685699,660.218933 
	C280.574310,660.341614 284.596863,665.453796 284.936188,669.593994 
	C285.535126,676.901978 289.816742,682.284546 296.949799,684.490479 
	C298.026184,684.823303 298.820404,685.112549 298.835266,686.333374 
	C298.848846,687.449829 298.295929,688.200439 297.231476,688.577515 
	C293.446289,689.918823 289.971313,691.743347 286.815887,694.313660 
	C284.685242,696.049255 283.174866,694.470032 282.078033,692.549316 
	C280.207550,689.273987 280.755157,685.440430 279.414246,681.635437 
	C279.227875,686.344299 276.169495,687.181152 272.450958,686.968750 
	C272.186951,688.403564 272.020966,689.539124 271.763275,690.653503 
	C271.332733,692.515747 271.534088,695.217834 268.777740,695.030212 
	C266.332855,694.863892 266.145111,692.327271 265.881714,690.391541 
	C264.874664,682.991272 263.968781,675.577209 262.994141,667.705994 
z"/>
</svg>